<mxfile host="app.diagrams.net" agent="Mozilla/5.0 (Macintosh; Intel Mac OS X 10_15_7) AppleWebKit/537.36 (KHTML, like Gecko) Chrome/130.0.0.0 Safari/537.36" version="24.8.3">
  <diagram name="Page-1" id="PQOK3bcYAvF4M1gE5SW_">
    <mxGraphModel dx="1224" dy="658" grid="1" gridSize="10" guides="1" tooltips="1" connect="1" arrows="1" fold="1" page="1" pageScale="1" pageWidth="850" pageHeight="1100" math="0" shadow="0">
      <root>
        <mxCell id="0" />
        <mxCell id="1" parent="0" />
        <mxCell id="_tvAbAqTs01VnIrU4OV6-1" value="" style="rounded=0;whiteSpace=wrap;html=1;" parent="1" vertex="1">
          <mxGeometry x="20" y="200" width="120" height="60" as="geometry" />
        </mxCell>
        <mxCell id="_tvAbAqTs01VnIrU4OV6-2" value="&lt;font style=&quot;font-size: 14px;&quot;&gt;User&lt;/font&gt;" style="text;html=1;align=center;verticalAlign=middle;whiteSpace=wrap;rounded=0;" parent="1" vertex="1">
          <mxGeometry x="40" y="210" width="70" height="40" as="geometry" />
        </mxCell>
        <mxCell id="_tvAbAqTs01VnIrU4OV6-3" value="" style="ellipse;whiteSpace=wrap;html=1;aspect=fixed;" parent="1" vertex="1">
          <mxGeometry x="310" y="10" width="90" height="90" as="geometry" />
        </mxCell>
        <mxCell id="_tvAbAqTs01VnIrU4OV6-4" value="1.0&lt;div&gt;Signup/Login&lt;/div&gt;" style="text;html=1;align=center;verticalAlign=middle;whiteSpace=wrap;rounded=0;" parent="1" vertex="1">
          <mxGeometry x="325" y="40" width="60" height="30" as="geometry" />
        </mxCell>
        <mxCell id="_tvAbAqTs01VnIrU4OV6-6" value="Credentials" style="text;html=1;align=center;verticalAlign=middle;whiteSpace=wrap;rounded=0;rotation=0;" parent="1" vertex="1">
          <mxGeometry x="145" y="20" width="60" height="30" as="geometry" />
        </mxCell>
        <mxCell id="_tvAbAqTs01VnIrU4OV6-9" value="User Database" style="shape=partialRectangle;whiteSpace=wrap;html=1;left=0;right=0;fillColor=none;" parent="1" vertex="1">
          <mxGeometry x="530" y="40" width="120" height="30" as="geometry" />
        </mxCell>
        <mxCell id="_tvAbAqTs01VnIrU4OV6-10" value="Check Credentials" style="text;html=1;align=center;verticalAlign=middle;whiteSpace=wrap;rounded=0;" parent="1" vertex="1">
          <mxGeometry x="425" width="110" height="30" as="geometry" />
        </mxCell>
        <mxCell id="_tvAbAqTs01VnIrU4OV6-11" value="" style="endArrow=classic;html=1;rounded=0;exitX=1;exitY=0;exitDx=0;exitDy=0;entryX=0.5;entryY=0;entryDx=0;entryDy=0;" parent="1" source="_tvAbAqTs01VnIrU4OV6-3" target="_tvAbAqTs01VnIrU4OV6-9" edge="1">
          <mxGeometry width="50" height="50" relative="1" as="geometry">
            <mxPoint x="400" y="90" as="sourcePoint" />
            <mxPoint x="650" y="70" as="targetPoint" />
            <Array as="points">
              <mxPoint x="590" y="23" />
            </Array>
          </mxGeometry>
        </mxCell>
        <mxCell id="_tvAbAqTs01VnIrU4OV6-12" value="" style="endArrow=classic;html=1;rounded=0;entryX=1;entryY=1;entryDx=0;entryDy=0;exitX=0.5;exitY=1;exitDx=0;exitDy=0;" parent="1" source="_tvAbAqTs01VnIrU4OV6-9" target="_tvAbAqTs01VnIrU4OV6-3" edge="1">
          <mxGeometry width="50" height="50" relative="1" as="geometry">
            <mxPoint x="590" y="137" as="sourcePoint" />
            <mxPoint x="570" y="140" as="targetPoint" />
            <Array as="points">
              <mxPoint x="590" y="87" />
            </Array>
          </mxGeometry>
        </mxCell>
        <mxCell id="_tvAbAqTs01VnIrU4OV6-13" value="Registration/Login Status" style="text;html=1;align=center;verticalAlign=middle;whiteSpace=wrap;rounded=0;" parent="1" vertex="1">
          <mxGeometry x="410" y="60" width="110" height="30" as="geometry" />
        </mxCell>
        <mxCell id="_tvAbAqTs01VnIrU4OV6-14" value="2.0&lt;div&gt;Solve Problems&lt;/div&gt;" style="ellipse;whiteSpace=wrap;html=1;aspect=fixed;perimeterSpacing=0;opacity=70;strokeWidth=3;" parent="1" vertex="1">
          <mxGeometry x="320" y="250" width="90" height="90" as="geometry" />
        </mxCell>
        <mxCell id="_tvAbAqTs01VnIrU4OV6-15" value="&lt;font style=&quot;font-size: 14px;&quot;&gt;Evaluator System&lt;/font&gt;" style="rounded=0;whiteSpace=wrap;html=1;" parent="1" vertex="1">
          <mxGeometry x="560" y="265" width="120" height="60" as="geometry" />
        </mxCell>
        <mxCell id="_tvAbAqTs01VnIrU4OV6-17" value="Submit Solution" style="text;html=1;align=center;verticalAlign=middle;whiteSpace=wrap;rounded=0;rotation=0;" parent="1" vertex="1">
          <mxGeometry x="200" y="190" width="90" height="30" as="geometry" />
        </mxCell>
        <mxCell id="_tvAbAqTs01VnIrU4OV6-19" value="Evaluate Problem" style="text;html=1;align=center;verticalAlign=middle;whiteSpace=wrap;rounded=0;" parent="1" vertex="1">
          <mxGeometry x="470" y="215" width="100" height="30" as="geometry" />
        </mxCell>
        <mxCell id="_tvAbAqTs01VnIrU4OV6-21" value="Return Evaluation" style="text;html=1;align=center;verticalAlign=middle;whiteSpace=wrap;rounded=0;rotation=0;" parent="1" vertex="1">
          <mxGeometry x="435" y="270" width="100" height="30" as="geometry" />
        </mxCell>
        <mxCell id="_tvAbAqTs01VnIrU4OV6-23" value="Return Result" style="text;html=1;align=center;verticalAlign=middle;whiteSpace=wrap;rounded=0;rotation=0;" parent="1" vertex="1">
          <mxGeometry x="205" y="270" width="90" height="30" as="geometry" />
        </mxCell>
        <mxCell id="_tvAbAqTs01VnIrU4OV6-24" value="3.0&lt;div&gt;Contest&lt;/div&gt;" style="ellipse;whiteSpace=wrap;html=1;aspect=fixed;" parent="1" vertex="1">
          <mxGeometry x="320" y="460" width="90" height="90" as="geometry" />
        </mxCell>
        <mxCell id="_tvAbAqTs01VnIrU4OV6-26" value="Contest Participation" style="text;html=1;align=center;verticalAlign=middle;whiteSpace=wrap;rounded=0;rotation=0;" parent="1" vertex="1">
          <mxGeometry x="115" y="380" width="120" height="30" as="geometry" />
        </mxCell>
        <mxCell id="_tvAbAqTs01VnIrU4OV6-28" value="Ratings" style="text;html=1;align=center;verticalAlign=middle;whiteSpace=wrap;rounded=0;rotation=0;" parent="1" vertex="1">
          <mxGeometry x="100" y="400" width="60" height="30" as="geometry" />
        </mxCell>
        <mxCell id="_tvAbAqTs01VnIrU4OV6-30" value="Submit Solution" style="text;html=1;align=center;verticalAlign=middle;whiteSpace=wrap;rounded=0;" parent="1" vertex="1">
          <mxGeometry x="290" y="370" width="70" height="30" as="geometry" />
        </mxCell>
        <mxCell id="_tvAbAqTs01VnIrU4OV6-32" value="Return Result" style="text;html=1;align=center;verticalAlign=middle;whiteSpace=wrap;rounded=0;" parent="1" vertex="1">
          <mxGeometry x="435" y="400" width="70" height="30" as="geometry" />
        </mxCell>
        <mxCell id="_tvAbAqTs01VnIrU4OV6-34" value="Calculate Ratings" style="text;html=1;align=center;verticalAlign=middle;whiteSpace=wrap;rounded=0;" parent="1" vertex="1">
          <mxGeometry x="460" y="450" width="105" height="30" as="geometry" />
        </mxCell>
        <mxCell id="_tvAbAqTs01VnIrU4OV6-39" value="Problems Database" style="shape=partialRectangle;whiteSpace=wrap;html=1;left=0;right=0;fillColor=none;" parent="1" vertex="1">
          <mxGeometry x="500" y="130" width="120" height="30" as="geometry" />
        </mxCell>
        <mxCell id="_tvAbAqTs01VnIrU4OV6-40" value="" style="endArrow=classic;html=1;rounded=0;exitX=0.5;exitY=0;exitDx=0;exitDy=0;entryX=0.5;entryY=0;entryDx=0;entryDy=0;" parent="1" source="_tvAbAqTs01VnIrU4OV6-14" target="_tvAbAqTs01VnIrU4OV6-39" edge="1">
          <mxGeometry width="50" height="50" relative="1" as="geometry">
            <mxPoint x="380" y="200" as="sourcePoint" />
            <mxPoint x="630" y="110" as="targetPoint" />
            <Array as="points">
              <mxPoint x="365" y="110" />
              <mxPoint x="560" y="110" />
            </Array>
          </mxGeometry>
        </mxCell>
        <mxCell id="_tvAbAqTs01VnIrU4OV6-41" value="" style="endArrow=classic;html=1;rounded=0;entryX=0.7;entryY=0.067;entryDx=0;entryDy=0;entryPerimeter=0;exitX=0.5;exitY=1;exitDx=0;exitDy=0;" parent="1" source="_tvAbAqTs01VnIrU4OV6-39" target="_tvAbAqTs01VnIrU4OV6-14" edge="1">
          <mxGeometry width="50" height="50" relative="1" as="geometry">
            <mxPoint x="560" y="200" as="sourcePoint" />
            <mxPoint x="450" y="150" as="targetPoint" />
            <Array as="points">
              <mxPoint x="560" y="200" />
              <mxPoint x="400" y="200" />
            </Array>
          </mxGeometry>
        </mxCell>
        <mxCell id="_tvAbAqTs01VnIrU4OV6-42" value="Return Problems" style="text;html=1;align=center;verticalAlign=middle;whiteSpace=wrap;rounded=0;" parent="1" vertex="1">
          <mxGeometry x="425" y="170" width="60" height="30" as="geometry" />
        </mxCell>
        <mxCell id="_tvAbAqTs01VnIrU4OV6-43" value="Fetch Problems" style="text;html=1;align=center;verticalAlign=middle;whiteSpace=wrap;rounded=0;" parent="1" vertex="1">
          <mxGeometry x="300" y="130" width="60" height="30" as="geometry" />
        </mxCell>
        <mxCell id="_tvAbAqTs01VnIrU4OV6-45" value="Return Ratings" style="text;html=1;align=center;verticalAlign=middle;whiteSpace=wrap;rounded=0;rotation=0;" parent="1" vertex="1">
          <mxGeometry x="470" y="480" width="90" height="30" as="geometry" />
        </mxCell>
        <mxCell id="_tvAbAqTs01VnIrU4OV6-46" value="4.0&lt;div&gt;Discuss&lt;/div&gt;" style="ellipse;whiteSpace=wrap;html=1;aspect=fixed;" parent="1" vertex="1">
          <mxGeometry x="130" y="490" width="90" height="90" as="geometry" />
        </mxCell>
        <mxCell id="_tvAbAqTs01VnIrU4OV6-47" value="Discuss Database" style="shape=partialRectangle;whiteSpace=wrap;html=1;left=0;right=0;fillColor=none;" parent="1" vertex="1">
          <mxGeometry x="240" y="570" width="120" height="30" as="geometry" />
        </mxCell>
        <mxCell id="_tvAbAqTs01VnIrU4OV6-49" value="Post Comment" style="text;html=1;align=center;verticalAlign=middle;whiteSpace=wrap;rounded=0;" parent="1" vertex="1">
          <mxGeometry x="80" y="440" width="60" height="30" as="geometry" />
        </mxCell>
        <mxCell id="_tvAbAqTs01VnIrU4OV6-50" value="" style="endArrow=classic;html=1;rounded=0;exitX=1;exitY=0.5;exitDx=0;exitDy=0;entryX=0.5;entryY=0;entryDx=0;entryDy=0;" parent="1" source="_tvAbAqTs01VnIrU4OV6-46" target="_tvAbAqTs01VnIrU4OV6-47" edge="1">
          <mxGeometry width="50" height="50" relative="1" as="geometry">
            <mxPoint x="160" y="560" as="sourcePoint" />
            <mxPoint x="210" y="510" as="targetPoint" />
            <Array as="points">
              <mxPoint x="300" y="535" />
            </Array>
          </mxGeometry>
        </mxCell>
        <mxCell id="_tvAbAqTs01VnIrU4OV6-51" value="Save Comment" style="text;html=1;align=center;verticalAlign=middle;whiteSpace=wrap;rounded=0;" parent="1" vertex="1">
          <mxGeometry x="230" y="500" width="60" height="30" as="geometry" />
        </mxCell>
        <mxCell id="_tvAbAqTs01VnIrU4OV6-52" value="" style="endArrow=classic;html=1;rounded=0;exitX=0.5;exitY=1;exitDx=0;exitDy=0;entryX=0.5;entryY=1;entryDx=0;entryDy=0;" parent="1" source="_tvAbAqTs01VnIrU4OV6-47" target="_tvAbAqTs01VnIrU4OV6-46" edge="1">
          <mxGeometry width="50" height="50" relative="1" as="geometry">
            <mxPoint x="275" y="730" as="sourcePoint" />
            <mxPoint x="110" y="680" as="targetPoint" />
            <Array as="points">
              <mxPoint x="300" y="640" />
              <mxPoint x="175" y="640" />
            </Array>
          </mxGeometry>
        </mxCell>
        <mxCell id="_tvAbAqTs01VnIrU4OV6-56" value="" style="endArrow=classic;html=1;rounded=0;entryX=1;entryY=0;entryDx=0;entryDy=0;exitX=0;exitY=1;exitDx=0;exitDy=0;" parent="1" source="_tvAbAqTs01VnIrU4OV6-3" target="_tvAbAqTs01VnIrU4OV6-1" edge="1">
          <mxGeometry width="50" height="50" relative="1" as="geometry">
            <mxPoint x="210" y="130" as="sourcePoint" />
            <mxPoint x="260" y="80" as="targetPoint" />
          </mxGeometry>
        </mxCell>
        <mxCell id="_tvAbAqTs01VnIrU4OV6-57" value="Registration/Login Status" style="text;html=1;align=center;verticalAlign=middle;whiteSpace=wrap;rounded=0;rotation=-30;" parent="1" vertex="1">
          <mxGeometry x="180" y="110" width="90" height="30" as="geometry" />
        </mxCell>
        <mxCell id="_tvAbAqTs01VnIrU4OV6-59" value="Get Replies" style="text;html=1;align=center;verticalAlign=middle;whiteSpace=wrap;rounded=0;" parent="1" vertex="1">
          <mxGeometry x="50" y="500" width="60" height="30" as="geometry" />
        </mxCell>
        <mxCell id="_tvAbAqTs01VnIrU4OV6-60" value="Return Replies" style="text;html=1;align=center;verticalAlign=middle;whiteSpace=wrap;rounded=0;" parent="1" vertex="1">
          <mxGeometry x="190" y="610" width="110" height="30" as="geometry" />
        </mxCell>
        <mxCell id="_tvAbAqTs01VnIrU4OV6-61" value="&lt;font style=&quot;font-size: 14px;&quot;&gt;Admin&lt;/font&gt;" style="rounded=0;whiteSpace=wrap;html=1;" parent="1" vertex="1">
          <mxGeometry x="405" y="570" width="120" height="60" as="geometry" />
        </mxCell>
        <mxCell id="_tvAbAqTs01VnIrU4OV6-62" value="5.0&lt;div&gt;User Management&lt;/div&gt;" style="ellipse;whiteSpace=wrap;html=1;aspect=fixed;" parent="1" vertex="1">
          <mxGeometry x="740" y="50" width="90" height="90" as="geometry" />
        </mxCell>
        <mxCell id="_tvAbAqTs01VnIrU4OV6-63" value="" style="endArrow=classic;html=1;rounded=0;exitX=0.5;exitY=1;exitDx=0;exitDy=0;entryX=1;entryY=1;entryDx=0;entryDy=0;" parent="1" source="_tvAbAqTs01VnIrU4OV6-61" target="_tvAbAqTs01VnIrU4OV6-62" edge="1">
          <mxGeometry width="50" height="50" relative="1" as="geometry">
            <mxPoint x="590" y="620" as="sourcePoint" />
            <mxPoint x="640" y="570" as="targetPoint" />
            <Array as="points">
              <mxPoint x="465" y="650" />
              <mxPoint x="817" y="650" />
            </Array>
          </mxGeometry>
        </mxCell>
        <mxCell id="_tvAbAqTs01VnIrU4OV6-64" value="Manage User" style="text;html=1;align=center;verticalAlign=middle;whiteSpace=wrap;rounded=0;" parent="1" vertex="1">
          <mxGeometry x="590" y="620" width="80" height="30" as="geometry" />
        </mxCell>
        <mxCell id="_tvAbAqTs01VnIrU4OV6-65" value="" style="endArrow=classic;html=1;rounded=0;entryX=0.75;entryY=0;entryDx=0;entryDy=0;exitX=0.5;exitY=0;exitDx=0;exitDy=0;" parent="1" source="_tvAbAqTs01VnIrU4OV6-62" target="_tvAbAqTs01VnIrU4OV6-9" edge="1">
          <mxGeometry width="50" height="50" relative="1" as="geometry">
            <mxPoint x="790" y="20" as="sourcePoint" />
            <mxPoint x="740" y="20" as="targetPoint" />
            <Array as="points">
              <mxPoint x="785" y="20" />
              <mxPoint x="620" y="20" />
            </Array>
          </mxGeometry>
        </mxCell>
        <mxCell id="_tvAbAqTs01VnIrU4OV6-66" value="User Changes" style="text;html=1;align=center;verticalAlign=middle;whiteSpace=wrap;rounded=0;" parent="1" vertex="1">
          <mxGeometry x="660" width="80" height="30" as="geometry" />
        </mxCell>
        <mxCell id="_tvAbAqTs01VnIrU4OV6-67" value="" style="endArrow=classic;html=1;rounded=0;entryX=0;entryY=0.5;entryDx=0;entryDy=0;" parent="1" target="_tvAbAqTs01VnIrU4OV6-62" edge="1">
          <mxGeometry width="50" height="50" relative="1" as="geometry">
            <mxPoint x="620" y="70" as="sourcePoint" />
            <mxPoint x="690" y="100" as="targetPoint" />
            <Array as="points">
              <mxPoint x="620" y="95" />
            </Array>
          </mxGeometry>
        </mxCell>
        <mxCell id="_tvAbAqTs01VnIrU4OV6-68" value="Changes Status" style="text;html=1;align=center;verticalAlign=middle;whiteSpace=wrap;rounded=0;" parent="1" vertex="1">
          <mxGeometry x="630" y="70" width="90" height="30" as="geometry" />
        </mxCell>
        <mxCell id="_tvAbAqTs01VnIrU4OV6-70" value="" style="endArrow=classic;html=1;rounded=0;exitX=0.5;exitY=1;exitDx=0;exitDy=0;entryX=1;entryY=0.75;entryDx=0;entryDy=0;" parent="1" source="_tvAbAqTs01VnIrU4OV6-62" target="_tvAbAqTs01VnIrU4OV6-61" edge="1">
          <mxGeometry width="50" height="50" relative="1" as="geometry">
            <mxPoint x="730" y="215" as="sourcePoint" />
            <mxPoint x="530" y="580" as="targetPoint" />
            <Array as="points">
              <mxPoint x="780" y="615" />
            </Array>
          </mxGeometry>
        </mxCell>
        <mxCell id="_tvAbAqTs01VnIrU4OV6-71" value="User Status" style="text;html=1;align=center;verticalAlign=middle;whiteSpace=wrap;rounded=0;" parent="1" vertex="1">
          <mxGeometry x="590" y="590" width="80" height="30" as="geometry" />
        </mxCell>
        <mxCell id="_tvAbAqTs01VnIrU4OV6-72" value="6.0&lt;div&gt;Problems Management&lt;/div&gt;" style="ellipse;whiteSpace=wrap;html=1;aspect=fixed;" parent="1" vertex="1">
          <mxGeometry x="680" y="390" width="90" height="90" as="geometry" />
        </mxCell>
        <mxCell id="_tvAbAqTs01VnIrU4OV6-74" value="Manage Problems" style="text;html=1;align=center;verticalAlign=middle;whiteSpace=wrap;rounded=0;rotation=0;" parent="1" vertex="1">
          <mxGeometry x="580" y="560" width="100" height="30" as="geometry" />
        </mxCell>
        <mxCell id="_tvAbAqTs01VnIrU4OV6-75" value="" style="endArrow=classic;html=1;rounded=0;exitX=1;exitY=0;exitDx=0;exitDy=0;entryX=0.75;entryY=0;entryDx=0;entryDy=0;" parent="1" source="_tvAbAqTs01VnIrU4OV6-72" target="_tvAbAqTs01VnIrU4OV6-39" edge="1">
          <mxGeometry width="50" height="50" relative="1" as="geometry">
            <mxPoint x="720" y="320" as="sourcePoint" />
            <mxPoint x="660" y="140" as="targetPoint" />
            <Array as="points">
              <mxPoint x="757" y="150" />
              <mxPoint x="700" y="150" />
              <mxPoint x="700" y="110" />
              <mxPoint x="590" y="110" />
            </Array>
          </mxGeometry>
        </mxCell>
        <mxCell id="_tvAbAqTs01VnIrU4OV6-77" value="" style="endArrow=classic;html=1;rounded=0;exitX=0.75;exitY=1;exitDx=0;exitDy=0;entryX=0.5;entryY=0;entryDx=0;entryDy=0;" parent="1" source="_tvAbAqTs01VnIrU4OV6-39" target="_tvAbAqTs01VnIrU4OV6-72" edge="1">
          <mxGeometry width="50" height="50" relative="1" as="geometry">
            <mxPoint x="630" y="210" as="sourcePoint" />
            <mxPoint x="730" y="170" as="targetPoint" />
            <Array as="points">
              <mxPoint x="590" y="200" />
              <mxPoint x="725" y="200" />
            </Array>
          </mxGeometry>
        </mxCell>
        <mxCell id="_tvAbAqTs01VnIrU4OV6-78" value="Changes Status" style="text;html=1;align=center;verticalAlign=middle;whiteSpace=wrap;rounded=0;" parent="1" vertex="1">
          <mxGeometry x="610" y="180" width="90" height="30" as="geometry" />
        </mxCell>
        <mxCell id="_tvAbAqTs01VnIrU4OV6-80" value="Problems Status" style="text;html=1;align=center;verticalAlign=middle;whiteSpace=wrap;rounded=0;rotation=0;" parent="1" vertex="1">
          <mxGeometry x="560" y="530" width="100" height="30" as="geometry" />
        </mxCell>
        <mxCell id="X4YeM2CYHKM7nNpzEooM-1" value="" style="endArrow=classic;html=1;rounded=0;exitX=0.5;exitY=0;exitDx=0;exitDy=0;entryX=-0.011;entryY=0.344;entryDx=0;entryDy=0;entryPerimeter=0;" edge="1" parent="1" source="_tvAbAqTs01VnIrU4OV6-1" target="_tvAbAqTs01VnIrU4OV6-3">
          <mxGeometry width="50" height="50" relative="1" as="geometry">
            <mxPoint x="80" y="200" as="sourcePoint" />
            <mxPoint x="130" y="150" as="targetPoint" />
            <Array as="points">
              <mxPoint x="80" y="40" />
            </Array>
          </mxGeometry>
        </mxCell>
        <mxCell id="X4YeM2CYHKM7nNpzEooM-2" value="" style="endArrow=classic;html=1;rounded=0;exitX=1;exitY=0.25;exitDx=0;exitDy=0;entryX=0;entryY=0;entryDx=0;entryDy=0;" edge="1" parent="1" source="_tvAbAqTs01VnIrU4OV6-1" target="_tvAbAqTs01VnIrU4OV6-14">
          <mxGeometry width="50" height="50" relative="1" as="geometry">
            <mxPoint x="180" y="240" as="sourcePoint" />
            <mxPoint x="230" y="190" as="targetPoint" />
            <Array as="points">
              <mxPoint x="310" y="215" />
            </Array>
          </mxGeometry>
        </mxCell>
        <mxCell id="X4YeM2CYHKM7nNpzEooM-3" value="" style="edgeStyle=segmentEdgeStyle;endArrow=classic;html=1;curved=0;rounded=0;endSize=8;startSize=8;exitX=0;exitY=0.5;exitDx=0;exitDy=0;entryX=0.092;entryY=1;entryDx=0;entryDy=0;entryPerimeter=0;" edge="1" parent="1" source="_tvAbAqTs01VnIrU4OV6-46" target="_tvAbAqTs01VnIrU4OV6-1">
          <mxGeometry width="50" height="50" relative="1" as="geometry">
            <mxPoint x="-60" y="540" as="sourcePoint" />
            <mxPoint x="-10" y="490" as="targetPoint" />
          </mxGeometry>
        </mxCell>
        <mxCell id="X4YeM2CYHKM7nNpzEooM-6" value="" style="edgeStyle=elbowEdgeStyle;elbow=vertical;endArrow=classic;html=1;curved=0;rounded=0;endSize=8;startSize=8;exitX=0.25;exitY=1;exitDx=0;exitDy=0;entryX=0.5;entryY=0;entryDx=0;entryDy=0;" edge="1" parent="1" source="_tvAbAqTs01VnIrU4OV6-1" target="_tvAbAqTs01VnIrU4OV6-46">
          <mxGeometry width="50" height="50" relative="1" as="geometry">
            <mxPoint x="60" y="420" as="sourcePoint" />
            <mxPoint x="110" y="370" as="targetPoint" />
            <Array as="points">
              <mxPoint x="120" y="470" />
            </Array>
          </mxGeometry>
        </mxCell>
        <mxCell id="X4YeM2CYHKM7nNpzEooM-8" value="" style="endArrow=classic;html=1;rounded=0;exitX=1;exitY=0;exitDx=0;exitDy=0;entryX=0.5;entryY=0;entryDx=0;entryDy=0;" edge="1" parent="1" source="_tvAbAqTs01VnIrU4OV6-14" target="_tvAbAqTs01VnIrU4OV6-15">
          <mxGeometry width="50" height="50" relative="1" as="geometry">
            <mxPoint x="400" y="263" as="sourcePoint" />
            <mxPoint x="450" y="290" as="targetPoint" />
            <Array as="points">
              <mxPoint x="420" y="240" />
              <mxPoint x="620" y="240" />
            </Array>
          </mxGeometry>
        </mxCell>
        <mxCell id="X4YeM2CYHKM7nNpzEooM-9" value="" style="endArrow=classic;html=1;rounded=0;exitX=0;exitY=0.5;exitDx=0;exitDy=0;entryX=1;entryY=0.5;entryDx=0;entryDy=0;" edge="1" parent="1" source="_tvAbAqTs01VnIrU4OV6-15" target="_tvAbAqTs01VnIrU4OV6-14">
          <mxGeometry width="50" height="50" relative="1" as="geometry">
            <mxPoint x="400" y="340" as="sourcePoint" />
            <mxPoint x="450" y="290" as="targetPoint" />
          </mxGeometry>
        </mxCell>
        <mxCell id="X4YeM2CYHKM7nNpzEooM-10" value="" style="endArrow=classic;html=1;rounded=0;exitX=0;exitY=0.5;exitDx=0;exitDy=0;entryX=1;entryY=1;entryDx=0;entryDy=0;" edge="1" parent="1" source="_tvAbAqTs01VnIrU4OV6-14" target="_tvAbAqTs01VnIrU4OV6-1">
          <mxGeometry width="50" height="50" relative="1" as="geometry">
            <mxPoint x="400" y="340" as="sourcePoint" />
            <mxPoint x="450" y="290" as="targetPoint" />
            <Array as="points">
              <mxPoint x="190" y="295" />
            </Array>
          </mxGeometry>
        </mxCell>
        <mxCell id="X4YeM2CYHKM7nNpzEooM-11" value="" style="endArrow=classic;html=1;rounded=0;exitX=1;exitY=0.25;exitDx=0;exitDy=0;entryX=0.5;entryY=1;entryDx=0;entryDy=0;" edge="1" parent="1" source="_tvAbAqTs01VnIrU4OV6-61" target="_tvAbAqTs01VnIrU4OV6-72">
          <mxGeometry width="50" height="50" relative="1" as="geometry">
            <mxPoint x="250" y="450" as="sourcePoint" />
            <mxPoint x="300" y="400" as="targetPoint" />
            <Array as="points">
              <mxPoint x="725" y="585" />
            </Array>
          </mxGeometry>
        </mxCell>
        <mxCell id="X4YeM2CYHKM7nNpzEooM-12" value="" style="endArrow=classic;html=1;rounded=0;exitX=1;exitY=0;exitDx=0;exitDy=0;entryX=0;entryY=1;entryDx=0;entryDy=0;" edge="1" parent="1" source="_tvAbAqTs01VnIrU4OV6-24" target="_tvAbAqTs01VnIrU4OV6-15">
          <mxGeometry width="50" height="50" relative="1" as="geometry">
            <mxPoint x="470" y="440" as="sourcePoint" />
            <mxPoint x="520" y="390" as="targetPoint" />
            <Array as="points">
              <mxPoint x="560" y="473" />
            </Array>
          </mxGeometry>
        </mxCell>
        <mxCell id="X4YeM2CYHKM7nNpzEooM-13" value="" style="endArrow=classic;html=1;rounded=0;entryX=1;entryY=0.5;entryDx=0;entryDy=0;exitX=0.5;exitY=1;exitDx=0;exitDy=0;" edge="1" parent="1" source="_tvAbAqTs01VnIrU4OV6-15" target="_tvAbAqTs01VnIrU4OV6-24">
          <mxGeometry width="50" height="50" relative="1" as="geometry">
            <mxPoint x="550" y="500" as="sourcePoint" />
            <mxPoint x="560" y="450" as="targetPoint" />
            <Array as="points">
              <mxPoint x="620" y="505" />
            </Array>
          </mxGeometry>
        </mxCell>
        <mxCell id="X4YeM2CYHKM7nNpzEooM-14" value="" style="endArrow=classic;html=1;rounded=0;exitX=0;exitY=1;exitDx=0;exitDy=0;entryX=0.5;entryY=0;entryDx=0;entryDy=0;" edge="1" parent="1" source="_tvAbAqTs01VnIrU4OV6-72" target="_tvAbAqTs01VnIrU4OV6-61">
          <mxGeometry width="50" height="50" relative="1" as="geometry">
            <mxPoint x="640" y="410" as="sourcePoint" />
            <mxPoint x="690" y="360" as="targetPoint" />
            <Array as="points">
              <mxPoint x="693" y="550" />
              <mxPoint x="465" y="550" />
            </Array>
          </mxGeometry>
        </mxCell>
        <mxCell id="X4YeM2CYHKM7nNpzEooM-16" value="" style="endArrow=classic;html=1;rounded=0;exitX=1;exitY=1;exitDx=0;exitDy=0;entryX=0.667;entryY=-0.011;entryDx=0;entryDy=0;entryPerimeter=0;" edge="1" parent="1" source="_tvAbAqTs01VnIrU4OV6-14" target="_tvAbAqTs01VnIrU4OV6-24">
          <mxGeometry width="50" height="50" relative="1" as="geometry">
            <mxPoint x="310" y="380" as="sourcePoint" />
            <mxPoint x="360" y="330" as="targetPoint" />
            <Array as="points">
              <mxPoint x="520" y="327" />
              <mxPoint x="520" y="440" />
              <mxPoint x="410" y="440" />
            </Array>
          </mxGeometry>
        </mxCell>
        <mxCell id="X4YeM2CYHKM7nNpzEooM-18" value="" style="endArrow=classic;html=1;rounded=0;exitX=0;exitY=0.5;exitDx=0;exitDy=0;entryX=0.5;entryY=1;entryDx=0;entryDy=0;" edge="1" parent="1" source="_tvAbAqTs01VnIrU4OV6-24" target="_tvAbAqTs01VnIrU4OV6-1">
          <mxGeometry width="50" height="50" relative="1" as="geometry">
            <mxPoint x="310" y="380" as="sourcePoint" />
            <mxPoint x="120" y="290" as="targetPoint" />
            <Array as="points">
              <mxPoint x="240" y="430" />
              <mxPoint x="80" y="430" />
            </Array>
          </mxGeometry>
        </mxCell>
        <mxCell id="X4YeM2CYHKM7nNpzEooM-19" value="" style="endArrow=classic;html=1;rounded=0;exitX=0.75;exitY=1;exitDx=0;exitDy=0;entryX=0;entryY=0;entryDx=0;entryDy=0;" edge="1" parent="1" source="_tvAbAqTs01VnIrU4OV6-1" target="_tvAbAqTs01VnIrU4OV6-24">
          <mxGeometry width="50" height="50" relative="1" as="geometry">
            <mxPoint x="330" y="360" as="sourcePoint" />
            <mxPoint x="380" y="310" as="targetPoint" />
            <Array as="points">
              <mxPoint x="110" y="400" />
              <mxPoint x="250" y="400" />
            </Array>
          </mxGeometry>
        </mxCell>
        <mxCell id="X4YeM2CYHKM7nNpzEooM-21" value="" style="endArrow=classic;html=1;rounded=0;exitX=0;exitY=1;exitDx=0;exitDy=0;entryX=0.5;entryY=0;entryDx=0;entryDy=0;" edge="1" parent="1" source="_tvAbAqTs01VnIrU4OV6-14" target="_tvAbAqTs01VnIrU4OV6-24">
          <mxGeometry width="50" height="50" relative="1" as="geometry">
            <mxPoint x="330" y="360" as="sourcePoint" />
            <mxPoint x="380" y="310" as="targetPoint" />
            <Array as="points">
              <mxPoint x="280" y="327" />
              <mxPoint x="280" y="400" />
              <mxPoint x="365" y="400" />
            </Array>
          </mxGeometry>
        </mxCell>
      </root>
    </mxGraphModel>
  </diagram>
</mxfile>
